
nColumns=19
nRows=118
DataType=double
version=3
OpenSimVersion=4.4-2022-10-11-798caa840
endheader
time	ground_force_calcn_r_vx	ground_force_calcn_r_vy	ground_force_calcn_r_vz	ground_force_calcn_r_px	ground_force_calcn_r_py	ground_force_calcn_r_pz	ground_force_calcn_r_mx	ground_force_calcn_r_my	ground_force_calcn_r_mz	ground_force_calcn_l_vx	ground_force_calcn_l_vy	ground_force_calcn_l_vz	ground_force_calcn_l_px	ground_force_calcn_l_py	ground_force_calcn_l_pz	ground_force_calcn_l_mx	ground_force_calcn_l_my	ground_force_calcn_l_mz
1.2	-105.518	124.626	-16.3173	-0.09979250000000001	0	-0.440382	-0.230684	0.272458	-0.0356731	0	0	0	0	0	0	0	0	0
1.21	-329.704	432.266	-32.492	-0.106821	0	-0.440815	-0.630008	0.825987	-0.0620868	-304.332	379.352	18.0499	-0.09438249999999999	0	-0.759538	0.491713	-0.612924	-0.0291634
1.22	-327.356	621.75	-36.5156	-0.118179	0	-0.440556	-0.803002	1.52515	-0.0895726	-485.135	800.458	29.2464	-0.105903	0	-0.759767	0.89142	-1.47082	-0.0537394
1.23	-140.825	655.347	-34.3558	-0.132394	0	-0.43817	-0.365113	1.6991	-0.08907320000000001	-148.511	759.401	39.6738	-0.119358	0	-0.756446	0.815094	-4.16792	-0.217747
1.24	-155.852	771.042	-56.8549	-0.141568	0	-0.436881	-0.454851	2.25026	-0.165929	-36.2486	762.029	37.1221	-0.127055	0	-0.753331	0.11678	-2.45497	-0.119594
1.25	-227.786	918.265	-88.5942	-0.152958	0	-0.43675	-0.139286	0.561496	-0.0541731	-154.662	842.8869999999999	46.3137	-0.12968	0	-0.752082	-0.290158	1.58132	0.0868882
1.26	-245.254	1135.47	-88.5354	-0.177437	0	-0.441468	1.04993	-4.86092	0.379018	-261.146	982.482	54.1249	-0.14325	0	-0.751381	-1.9145	7.20272	0.396798
1.27	-154.202	1362.95	-37.3149	-0.203509	0	-0.449968	1.29499	-11.446	0.313369	-217.397	1180.34	19.9228	-0.169778	0	-0.746642	-2.75835	14.9763	0.252782
1.28	-113.85	1333.56	-10.15	-0.204991	0	-0.453294	1.21454	-14.2264	0.10828	-114.065	1281.45	-0.0379937	-0.186201	0	-0.742831	-1.6376	18.3973	-0.000545462
1.29	-196.231	1090.21	-26.5393	-0.179877	0	-0.449949	2.08692	-11.5944	0.282246	-129.081	1192.15	29.7739	-0.179761	0	-0.744858	-1.66851	15.4098	0.384858
1.3	-222.838	876.216	-42.4246	-0.151377	0	-0.446104	1.79815	-7.07048	0.342338	-167.724	1034.48	57.3844	-0.161122	0	-0.748564	-1.51292	9.331250000000001	0.5176230000000001
1.31	-195.177	786.184	-44.9934	-0.138268	0	-0.445558	1.24642	-5.02065	0.287333	-139.272	978.114	75.349	-0.150113	0	-0.7506429999999999	-0.624919	4.38884	0.338094
1.32	-194.613	777.178	-42.4087	-0.134075	0	-0.446518	1.28576	-5.13461	0.280183	-110.228	1039.62	78.0407	-0.148715	0	-0.750667	-0.247575	2.335	0.175281
1.33	-196.852	783.625	-37.069	-0.131692	0	-0.447478	1.48209	-5.89989	0.279092	-104.565	1114.15	62.6438	-0.147335	0	-0.749401	-0.242709	2.58608	0.145404
1.34	-169.276	783.34	-26.0069	-0.130504	0	-0.448533	1.51304	-7.00173	0.232458	-101.168	1149.62	46.6463	-0.143409	0	-0.748366	-0.302991	3.44302	0.139702
1.35	-135.644	790.242	-14.0154	-0.130202	0	-0.449497	1.39445	-8.12388	0.144082	-86.7761	1161.69	41.2346	-0.139208	0	-0.7480059999999999	-0.256395	3.43243	0.121835
1.36	-114.15	808.775	-7.86368	-0.130179	0	-0.450178	1.22787	-8.69971	0.08458690000000001	-69.1313	1170.67	47.0874	-0.135545	0	-0.748125	-0.127646	2.16157	0.0869438
1.37	-106.244	836.048	-9.93796	-0.13017	0	-0.450328	1.10402	-8.6877	0.103269	-60.9125	1183.04	55.4952	-0.131572	0	-0.748344	-0.0212113	0.411967	0.0193249
1.38	-102.812	862.809	-14.3835	-0.130029	0	-0.450181	1.02431	-8.59613	0.143302	-65.53060000000001	1192.19	60.6958	-0.127079	0	-0.748259	0.0658912	-1.19875	-0.0610298
1.39	-95.0468	877.524	-14.7008	-0.129382	0	-0.450052	0.962987	-8.89082	0.148945	-71.66370000000001	1190.28	61.085	-0.122776	0	-0.747673	0.140973	-2.34145	-0.120163
1.4	-83.8857	871.705	-11.5365	-0.127929	0	-0.45006	0.894373	-9.29396	0.123	-74.6181	1179.35	57.2855	-0.119073	0	-0.746742	0.181938	-2.87557	-0.139677
1.41	-72.9629	839.045	-7.5245	-0.125579	0	-0.45004	0.8106409999999999	-9.32206	0.0835996	-73.7362	1162.46	50.8916	-0.116037	0	-0.745735	0.187954	-2.9631	-0.129723
1.42	-72.38809999999999	789.5940000000001	-5.73698	-0.122502	0	-0.44978	0.823369	-8.98114	0.06525449999999999	-67.0057	1143.62	44.6624	-0.113646	0	-0.744783	0.171322	-2.92405	-0.114194
1.43	-79.2159	739.41	-4.71439	-0.11928	0	-0.449481	0.915629	-8.54659	0.054492	-58.5466	1128.43	41.4256	-0.111736	0	-0.743984	0.162875	-3.13926	-0.115245
1.44	-84.3233	701.192	-1.88791	-0.116603	0	-0.449388	1.00007	-8.3161	0.0223905	-50.9938	1121.26	43.6651	-0.11032	0	-0.743486	0.176116	-3.87246	-0.150805
1.45	-87.16630000000001	687.303	3.32604	-0.115064	0	-0.449698	1.07205	-8.453049999999999	-0.0409065	-43.5881	1125.07	50.9353	-0.109338	0	-0.743243	0.190773	-4.92411	-0.22293
1.46	-83.2563	699.223	12.1827	-0.114907	0	-0.450569	1.06206	-8.91961	-0.155408	-34.3176	1136.39	57.1149	-0.108849	0	-0.7428979999999999	0.171046	-5.66401	-0.284672
1.47	-68.8998	729.085	22.5046	-0.115754	0	-0.452168	0.897051	-9.492419999999999	-0.293002	-23.527	1150.27	55.6827	-0.108589	0	-0.742014	0.112265	-5.48879	-0.265703
1.48	-47.0712	771.01	28.6778	-0.117335	0	-0.453575	0.595986	-9.762040000000001	-0.363101	-12.1018	1163.75	44.845	-0.108249	0	-0.740445	0.0448903	-4.31679	-0.166347
1.49	-24.3468	816.005	26.6628	-0.119186	0	-0.454241	0.277205	-9.29078	-0.303574	1.18111	1175.71	28.8056	-0.107843	0	-0.738501	-0.00264644	-2.63434	-0.06454269999999999
1.5	-7.67715	852.518	16.5649	-0.120596	0	-0.454359	0.072981	-8.10426	-0.15747	12.4726	1188	14.9919	-0.107419	0	-0.736694	-0.0140501	-1.33825	-0.016888
1.51	2.23687	871.961	4.22095	-0.121188	0	-0.454313	-0.0173782	-6.77425	-0.0327925	19.8192	1197.5	7.78682	-0.10686	0	-0.735325	-0.014671	-0.886441	-0.00576413
1.52	7.13631	873.87	-4.96507	-0.120962	0	-0.454268	-0.0478944	-5.86486	0.0333224	29.2708	1198.47	6.57166	-0.106056	0	-0.734324	-0.0287731	-1.17809	-0.00645991
1.53	6.67967	865.918	-10.7571	-0.120212	0	-0.454358	-0.0417567	-5.41312	0.067246	39.0216	1189.89	8.46434	-0.105114	0	-0.733505	-0.0584732	-1.78303	-0.0126837
1.54	2.96296	857.601	-15.1222	-0.119374	0	-0.454537	-0.0177164	-5.12784	0.09041979999999999	45.3709	1171.59	11.1797	-0.103887	0	-0.732826	-0.0949232	-2.45116	-0.0233898
1.55	-0.954115	856.995	-21.5189	-0.118768	0	-0.45465	0.00524809	-4.71389	0.118365	51.1744	1143.73	14.5921	-0.102511	0	-0.732245	-0.138069	-3.0858	-0.0393696
1.56	-7.85354	870.62	-33.7864	-0.118433	0	-0.454512	0.035449	-3.92977	0.152504	51.8104	1113.15	20.0464	-0.10106	0	-0.73181	-0.174694	-3.7533	-0.06759220000000001
1.57	-18.5524	902.225	-50.561	-0.11854	0	-0.454206	0.0578696	-2.81426	0.157712	45.4048	1086.26	27.7692	-0.0994929	0	-0.73155	-0.187849	-4.49406	-0.114887
1.58	-29.6022	948.292	-68.1288	-0.119038	0	-0.453862	0.0527312	-1.68922	0.12136	37.212	1067.18	37.1798	-0.0981881	0	-0.731389	-0.18147	-5.20427	-0.181313
1.59	-37.0511	1000.98	-83.2239	-0.119705	0	-0.453612	0.0310021	-0.837562	0.0696367	25.9561	1059.9	46.703	-0.0971239	0	-0.731415	-0.143649	-5.86582	-0.258469
1.6	-39.3546	1054.17	-94.58969999999999	-0.120503	0	-0.453608	0.0191993	-0.51428	0.0461458	12.5519	1064.21	54.052	-0.0963691	0	-0.731502	-0.0745157	-6.31783	-0.320886
1.61	-39.7928	1099.66	-101.245	-0.121172	0	-0.453783	0.0297537	-0.822231	0.0757023	0.321267	1075.45	58.6126	-0.0958434	0	-0.731498	-0.00194049	-6.49583	-0.354027
1.62	-42.689	1130.28	-102.218	-0.121479	0	-0.454022	0.0652136	-1.72666	0.156153	-13.0381	1090.54	60.7165	-0.0955835	0	-0.731496	0.0783445	-6.55293	-0.364839
1.63	-50.4818	1144.59	-99.1651	-0.121416	0	-0.454143	0.123551	-2.80132	0.242701	-28.226	1105.08	61.4874	-0.095466	0	-0.731418	0.168711	-6.60521	-0.36752
1.64	-63.5454	1145.72	-96.2817	-0.121044	0	-0.454037	0.198746	-3.58338	0.301133	-44.2103	1114.3	61.9672	-0.0951968	0	-0.731389	0.269505	-6.79272	-0.37775
1.65	-78.706	1136.12	-96.03619999999999	-0.120467	0	-0.453595	0.271992	-3.9262	0.331881	-61.3209	1117.05	61.9752	-0.0949372	0	-0.73156	0.395976	-7.21329	-0.400201
1.66	-93.491	1118.71	-98.8719	-0.119956	0	-0.452664	0.328529	-3.93116	0.347437	-78.8806	1111.59	61.6468	-0.0945715	0	-0.731857	0.554042	-7.80758	-0.432995
1.67	-105.876	1094.05	-103.662	-0.119655	0	-0.451221	0.365354	-3.77532	0.357714	-96.333	1095.39	61.5035	-0.09404	0	-0.732301	0.744887	-8.47001	-0.475571
1.68	-114.095	1057.13	-108.414	-0.119463	0	-0.449391	0.381484	-3.53457	0.362489	-112.524	1062.93	61.8326	-0.093268	0	-0.732973	0.960718	-9.07518	-0.527919
1.69	-115.597	998.456	-111.081	-0.11923	0	-0.44719	0.381475	-3.29495	0.366572	-124.376	1002.66	61.8569	-0.0920518	0	-0.734036	1.17077	-9.43825	-0.582272
1.7	-106.667	909.518	-107.153	-0.118925	0	-0.444588	0.387265	-3.3021	0.389031	-127.299	901.0549999999999	59.285	-0.0899112	0	-0.735501	1.30978	-9.271000000000001	-0.609986
1.71	-81.7938	774.671	-85.6932	-0.118515	0	-0.441859	0.431799	-4.08958	0.452385	-113.254	749.505	49.0565	-0.0865093	0	-0.737312	1.22482	-8.105729999999999	-0.530535
1.72	-38.3178	567.723	-43.8214	-0.117648	0	-0.439401	0.360081	-5.33503	0.4118	-73.82389999999999	546.1660000000001	27.4748	-0.0816992	0	-0.739276	0.761035	-5.63031	-0.283232
1.73	9.700290000000001	303.283	-11.4624	-0.115593	0	-0.437204	-0.148585	-4.64555	0.175576	-19.5957	307.191	3.23821	-0.07509390000000001	0	-0.74076	0.167672	-2.6285	-0.027708
1.74	25.3272	85.042	-3.86305	-0.111451	0	-0.437604	-0.47692	-1.60137	0.07274269999999999	15.8224	94.90940000000001	-7.97227	-0.0606388	0	-0.735668	-0.0430725	-0.258366	0.0217024
1.75	0	0	0	0	0	0	0	0	0	0	0	0	0	0	0	0	0	0
1.76	0	0	0	0	0	0	0	0	0	0	0	0	0	0	0	0	0	0
1.77	0	0	0	0	0	0	0	0	0	0	0	0	0	0	0	0	0	0
1.78	0	0	0	0	0	0	0	0	0	0	0	0	0	0	0	0	0	0
1.79	0	0	0	0	0	0	0	0	0	0	0	0	0	0	0	0	0	0
1.8	0	0	0	0	0	0	0	0	0	0	0	0	0	0	0	0	0	0
1.81	0	0	0	0	0	0	0	0	0	0	0	0	0	0	0	0	0	0
1.82	0	0	0	0	0	0	0	0	0	0	0	0	0	0	0	0	0	0
1.83	0	0	0	0	0	0	0	0	0	0	0	0	0	0	0	0	0	0
1.84	0	0	0	0	0	0	0	0	0	0	0	0	0	0	0	0	0	0
1.85	0	0	0	0	0	0	0	0	0	0	0	0	0	0	0	0	0	0
1.86	0	0	0	0	0	0	0	0	0	0	0	0	0	0	0	0	0	0
1.87	0	0	0	0	0	0	0	0	0	0	0	0	0	0	0	0	0	0
1.88	0	0	0	0	0	0	0	0	0	0	0	0	0	0	0	0	0	0
1.89	0	0	0	0	0	0	0	0	0	0	0	0	0	0	0	0	0	0
1.9	0	0	0	0	0	0	0	0	0	0	0	0	0	0	0	0	0	0
1.91	0	0	0	0	0	0	0	0	0	0	0	0	0	0	0	0	0	0
1.92	0	0	0	0	0	0	0	0	0	0	0	0	0	0	0	0	0	0
1.93	0	0	0	0	0	0	0	0	0	0	0	0	0	0	0	0	0	0
1.94	0	0	0	0	0	0	0	0	0	0	0	0	0	0	0	0	0	0
1.95	0	0	0	0	0	0	0	0	0	0	0	0	0	0	0	0	0	0
1.96	0	0	0	0	0	0	0	0	0	0	0	0	0	0	0	0	0	0
1.97	0	0	0	0	0	0	0	0	0	0	0	0	0	0	0	0	0	0
1.98	0	0	0	0	0	0	0	0	0	0	0	0	0	0	0	0	0	0
1.99	0	0	0	0	0	0	0	0	0	0	0	0	0	0	0	0	0	0
2	0	0	0	0	0	0	0	0	0	0	0	0	0	0	0	0	0	0
2.01	0	0	0	0	0	0	0	0	0	0	0	0	0	0	0	0	0	0
2.02	0	0	0	0	0	0	0	0	0	0	0	0	0	0	0	0	0	0
2.03	0	0	0	0	0	0	0	0	0	0	0	0	0	0	0	0	0	0
2.04	0	0	0	0	0	0	0	0	0	0	0	0	0	0	0	0	0	0
2.05	0	0	0	0	0	0	0	0	0	0	0	0	0	0	0	0	0	0
2.06	0	0	0	0	0	0	0	0	0	0	0	0	0	0	0	0	0	0
2.07	0	0	0	0	0	0	0	0	0	0	0	0	0	0	0	0	0	0
2.08	0	0	0	0	0	0	0	0	0	0	0	0	0	0	0	0	0	0
2.09	0	0	0	0	0	0	0	0	0	0	0	0	0	0	0	0	0	0
2.1	0	0	0	0	0	0	0	0	0	0	0	0	0	0	0	0	0	0
2.11	0	0	0	0	0	0	0	0	0	0	0	0	0	0	0	0	0	0
2.12	0	0	0	0	0	0	0	0	0	0	0	0	0	0	0	0	0	0
2.13	0	0	0	0	0	0	0	0	0	0	0	0	0	0	0	0	0	0
2.14	0	0	0	0	0	0	0	0	0	0	0	0	0	0	0	0	0	0
2.15	0	0	0	0	0	0	0	0	0	0	0	0	0	0	0	0	0	0
2.16	0	0	0	0	0	0	0	0	0	0	0	0	0	0	0	0	0	0
2.17	0	0	0	0	0	0	0	0	0	0	0	0	0	0	0	0	0	0
2.18	0	0	0	0	0	0	0	0	0	0	0	0	0	0	0	0	0	0
2.19	0	0	0	0	0	0	0	0	0	0	0	0	0	0	0	0	0	0
2.2	0	0	0	0	0	0	0	0	0	0	0	0	0	0	0	0	0	0
2.21	0	0	0	0	0	0	0	0	0	0	0	0	0	0	0	0	0	0
2.22	0	0	0	0	0	0	0	0	0	0	0	0	0	0	0	0	0	0
2.23	0	0	0	0	0	0	0	0	0	0	0	0	0	0	0	0	0	0
2.24	0	0	0	0	0	0	0	0	0	0	0	0	0	0	0	0	0	0
2.25	0	0	0	0	0	0	0	0	0	0	0	0	0	0	0	0	0	0
2.26	0	0	0	0	0	0	0	0	0	0	0	0	0	0	0	0	0	0
2.27	0	0	0	0	0	0	0	0	0	0	0	0	0	0	0	0	0	0
2.28	0	0	0	0	0	0	0	0	0	0	0	0	0	0	0	0	0	0
2.29	0	0	0	0	0	0	0	0	0	0	0	0	0	0	0	0	0	0
2.3	0	0	0	0	0	0	0	0	0	0	0	0	0	0	0	0	0	0
2.31	0	0	0	0	0	0	0	0	0	0	0	0	0	0	0	0	0	0
2.32	0	0	0	0	0	0	0	0	0	0	0	0	0	0	0	0	0	0
2.33	0	0	0	0	0	0	0	0	0	0	0	0	0	0	0	0	0	0
2.34	-14.2601	25.842	-6.53219	-0.0691753	0	-0.453146	-0.0532877	0.0965678	-0.0244098	-100.824	180.72	7.49059	0.155224	0	-0.731739	0.703823	-1.26155	-0.0522894
2.35	-118.695	272.486	-56.511	-0.0863294	0	-0.436244	-0.120103	0.275717	-0.0571812	-313.469	725.728	-10.3657	0.125716	0	-0.73663	0.755902	-1.75003	0.0249959
2.36	-167.644	550.258	-82.61839999999999	-0.09178219999999999	0	-0.438579	-0.323362	1.06137	-0.159359	-177.489	993.701	5.20919	0.114005	0	-0.735697	0.464553	-2.60088	-0.0136344
2.37	-12.7176	620.592	-38.0569	-0.10085	0	-0.442195	-0.008638399999999999	0.421536	-0.02585	103.381	1121.31	48.3119	0.103487	0	-0.736493	-0.115539	-1.25319	-0.0539937
